<?xml version="1.0" encoding="UTF-8"?>
<svg width="128" height="128" viewBox="0 0 128 128" fill="none" xmlns="http://www.w3.org/2000/svg" role="img" aria-labelledby="title desc">
  <title id="title">AI DAWG Logo</title>
  <desc id="desc">A friendly purple puppy badge with a white border, inspired by studio UI themes.</desc>

  <!-- Background ring (Pro Tools style: purple core with white border) -->
  <defs>
    <linearGradient id="grad" x1="0" y1="0" x2="128" y2="128" gradientUnits="userSpaceOnUse">
      <stop offset="0%" stop-color="#7C3AED"/>
      <stop offset="100%" stop-color="#A855F7"/>
    </linearGradient>
    <filter id="softShadow" x="-20%" y="-20%" width="140%" height="140%" color-interpolation-filters="sRGB">
      <feDropShadow dx="0" dy="2" stdDeviation="2" flood-color="#000" flood-opacity="0.25"/>
    </filter>
  </defs>

  <!-- White outer border -->
  <circle cx="64" cy="64" r="58" fill="#0B0B12" stroke="white" stroke-width="4"/>
  <!-- Purple ring -->
  <circle cx="64" cy="64" r="50" fill="url(#grad)" filter="url(#softShadow)"/>

  <!-- Puppy face (cartoon, simple and friendly) -->
  <!-- Ears -->
  <path d="M36 50 C28 42, 26 32, 34 30 C42 28, 48 36, 50 42" fill="#6D28D9" opacity="0.9"/>
  <path d="M92 50 C100 42, 102 32, 94 30 C86 28, 80 36, 78 42" fill="#6D28D9" opacity="0.9"/>

  <!-- Head -->
  <circle cx="64" cy="68" r="28" fill="#E9D5FF" stroke="#FFFFFF" stroke-width="2"/>

  <!-- Eye patches -->
  <ellipse cx="52" cy="64" rx="9" ry="10" fill="#C4B5FD" opacity="0.9"/>
  <ellipse cx="76" cy="64" rx="9" ry="10" fill="#C4B5FD" opacity="0.9"/>

  <!-- Eyes -->
  <circle cx="52" cy="64" r="3.2" fill="#1F2937"/>
  <circle cx="76" cy="64" r="3.2" fill="#1F2937"/>

  <!-- Nose -->
  <path d="M64 70 c5.5 0 8 -3 8 -6 c0 -2.5 -3 -4.5 -8 -4.5 c-5 0 -8 2 -8 4.5 c0 3 2.5 6 8 6z" fill="#7C3AED"/>

  <!-- Smile -->
  <path d="M52 78 C58 84, 70 84, 76 78" stroke="#7C3AED" stroke-width="3" stroke-linecap="round" fill="none"/>

  <!-- Small highlight -->
  <circle cx="50" cy="56" r="3" fill="#FFFFFF" opacity="0.7"/>

  <!-- Subtle inner ring for polish -->
  <circle cx="64" cy="64" r="46" fill="none" stroke="#FFFFFF" stroke-opacity="0.35" stroke-width="1.5"/>
</svg>

